<?xml version="1.0" encoding="utf-8"?>
<svg version="1.1" id="Ebene_2_00000146488484650417981850000001243733173739257005_"
	 xmlns="http://www.w3.org/2000/svg" xmlns:xlink="http://www.w3.org/1999/xlink" x="0px" y="0px" viewBox="0 0 242.2 234.8"
	 style="enable-background:new 0 0 242.2 234.8;" xml:space="preserve">
<style type="text/css">
	.st0{fill-rule:evenodd;clip-rule:evenodd;fill:#DBFF55;}
</style>
<g id="Ebene_1-2">
	<path class="st0" d="M73,0H0v234.8L48.8,186V33.4h1.1c12.4,0,23.6,8.3,23.6,16.2v81.8c27.6-4.4,49.1-19.1,49.1-65.1
		C122.5,14.3,101.7,0,73,0z"/>
	<path class="st0" d="M242.2,0H140.6l-0.1,32.7h61.7l-42.7,42.6v30.5c0,0,14.4-4.5,27.9-4.6c12.5-0.2,24.2,3.4,22.6,17.9
		c-2,18.6-11.3,23.7-26.7,28.6c-11.1,3.6-25.4,4.8-42.6,5l0,33.1c0,0,58.2,2.5,78.8-14.8c4.5-3.5,9-8.6,12.8-14.8
		c3.7-6,6.1-12.2,7.1-17.7c0.6-2.2,1-4.2,1.2-6.2c0.1-0.6,0.2-1.2,0.3-1.9c3.2-22.1-3.4-42.1-15.4-49.5h0c-2.6-1.4-5.7-2.4-9.2-2.9
		c-4.1-0.6-8.8-0.4-14.3,0.6l40.2-40.3L242.2,0L242.2,0z"/>
</g>
</svg>
